<svg xmlns="http://www.w3.org/2000/svg" xmlns:xlink="http://www.w3.org/1999/xlink" width="50" height="50" viewBox="0 0 50 50"><defs><style>.a{fill:url(#a);}.b{fill:#fff;}</style><linearGradient id="a" x1="0.5" x2="0.5" y2="1" gradientUnits="objectBoundingBox"><stop offset="0" stop-color="#ed1c24"/><stop offset="1" stop-color="#9e1825"/></linearGradient></defs><g transform="translate(0.001)"><circle class="a" cx="25" cy="25" r="25" transform="translate(-0.001)"/><path class="b" d="M28.023,7.948V27.431a1.955,1.955,0,0,1-1.957,1.948h-2.4a1.955,1.955,0,0,1-1.957-1.948V7.948A1.955,1.955,0,0,1,23.664,6h2.4A1.955,1.955,0,0,1,28.023,7.948ZM13.859,6h-2.4A1.955,1.955,0,0,0,9.5,7.948V27.431a1.955,1.955,0,0,0,1.957,1.948h2.4a1.955,1.955,0,0,0,1.957-1.948V7.948A1.955,1.955,0,0,0,13.859,6Z" transform="translate(6.499 7)"/></g></svg>