<svg xmlns="http://www.w3.org/2000/svg" width="16.42" height="16.42" viewBox="0 0 16.42 16.42"><defs><style>.a,.b{fill:#d10010;}.a{stroke:#d10010;}.c,.e{stroke:none;}.d{fill:none;}.e{fill:#d10010;}</style></defs><g class="a" transform="translate(0 6.682)"><rect class="c" width="16.42" height="2.5" rx="1.25"/><rect class="d" x="0.5" y="0.5" width="15.42" height="1.5" rx="0.75"/></g><g class="b" transform="translate(9.182) rotate(90)"><path class="c" d="M 15.05159091949463 2 L 1.368330955505371 2 C 0.8895309567451477 2 0.5000009536743164 1.663550019264221 0.5000009536743164 1.25 C 0.5000009536743164 0.8364499807357788 0.8895309567451477 0.5 1.368330955505371 0.5 L 15.05159091949463 0.5 C 15.53039073944092 0.5 15.91992092132568 0.8364499807357788 15.91992092132568 1.25 C 15.91992092132568 1.663550019264221 15.53039073944092 2 15.05159091949463 2 Z"/><path class="e" d="M 1.368320465087891 1 C 1.15752124786377 1 1.000000953674316 1.1319899559021 1.000000953674316 1.25 C 1.000000953674316 1.3680100440979 1.15752124786377 1.5 1.368320465087891 1.5 L 15.05159091949463 1.5 C 15.26240062713623 1.5 15.41992092132568 1.3680100440979 15.41992092132568 1.25 C 15.41992092132568 1.1319899559021 15.26240062713623 1 15.05159091949463 1 L 1.368320465087891 1 M 1.368320465087891 0 L 15.05159091949463 0 C 15.80730056762695 0 16.419921875 0.5596400499343872 16.419921875 1.25 C 16.419921875 1.940360069274902 15.80730056762695 2.5 15.05159091949463 2.5 L 1.368320465087891 2.5 C 0.6126213073730469 2.5 0 1.940360069274902 0 1.25 C 0 0.5596400499343872 0.6126213073730469 0 1.368320465087891 0 Z"/></g></svg>